# xmcd CD database file
# Copyright (C) 1993-1998 Ti Kan
#
# Track frame offsets:
#	182
#	18447
#	30637
#	48250
#	65460
#	76465
#	101960
#	114865
#	126422
#	134930
#	150055
#	158622
#	172795
#	185635
#
# Disc length: 2667 seconds
#
# Revision: 0
# Processed by: cddbd v1.4b41PL1 Copyright (c) Steve Scherf et al.
# Submitted via: CDmax 1.4
#
DISCID=b00a690e
DTITLE=Stare Dobre Malzenstwo - Dolina w Dlugich cieniach
DYEAR=1900
DGENRE=
TTITLE0=Dolina w dlugich cieniach
TTITLE1=Tango triste
TTITLE2=Zobaczysz
TTITLE3=Ratuj, slonechko
TTITLE4=Jesien
TTITLE5=Czas plynie i zabija rany
TTITLE6=Biala Lokomotywa
TTITLE7=Idz dalej
TTITLE8=Piosenka nad piosenkami
TTITLE9=Tak
TTITLE10=Piosenka dla zapowietrzonego
TTITLE11=Za dal dal
TTITLE12=Dookola mgla
TTITLE13=Nie rozdziobia nas kruki
EXTD=
EXTT0=
EXTT1=
EXTT2=
EXTT3=
EXTT4=
EXTT5=
EXTT6=
EXTT7=
EXTT8=
EXTT9=
EXTT10=
EXTT11=
EXTT12=
EXTT13=
PLAYORDER=
